<svg viewBox="-0.75 -0.75 24 24" fill="none" xmlns="http://www.w3.org/2000/svg" id="Phone--Streamline-Solar-Ar" height="24" width="24">
  <desc>
    Phone Streamline Icon: https://streamlinehq.com
  </desc>
  <path d="m15.09440625 12.5240625 -0.49575 -0.4985625 0.49575 0.4985625Zm0.42703125000000003 -0.4245 0.49575 0.4985625 -0.49575 -0.4985625Zm2.2655624999999997 -0.29700000000000004 -0.3358125 0.6177187500000001 0.3358125 -0.6177187500000001Zm1.7910937500000002 0.9736874999999999 -0.3358125 0.6177187500000001 0.3358125 -0.6177187500000001Zm0.50475 3.0515624999999997 0.49575 0.4985625 -0.49575 -0.4985625Zm-1.3318125 1.324125 -0.49575 -0.4985625 0.49575 0.4985625Zm-1.242 0.6278437499999999 0.06525 0.700125 -0.06525 -0.700125Zm-9.24463125 -3.97359375 0.49576875 -0.49865625 -0.49576875 0.49865625ZM3.752709375 5.386509375l-0.701990625 0.039890625 0.701990625 -0.039890625Zm6.069946875 1.361034375 0.49575 0.4986 -0.49575 -0.4986Zm0.14690625000000002 -2.48803125 0.562875 -0.421378125 -0.562875 0.421378125Zm-1.1821312499999999 -1.579125 -0.562875 0.421378125 0.562875 -0.421378125Zm-2.9173218750000003 -0.266484375 0.49576875 0.4986 -0.49576875 -0.4986Zm-1.4715 1.4631468749999998 -0.49576875 -0.4986 0.49576875 0.4986Zm6.910546875 6.901574999999999 0.49575 -0.4985625 -0.49575 0.4985625Zm4.281 2.2440937499999998 0.42703125000000003 -0.42459375000000005 -0.99159375 -0.99721875 -0.4269375 0.42459375000000005 0.9915 0.99721875Zm1.8610312500000001 -0.6024375 1.7910937500000002 0.9736874999999999 0.671625 -1.2354375000000002 -1.7910937500000002 -0.9736874999999999 -0.671625 1.2354375000000002Zm2.13590625 2.9088749999999997 -1.3318125 1.32421875 0.9915 0.99721875 1.3318125 -1.32421875 -0.9915 -0.99721875Zm-2.1433125 1.75059375c-1.35928125 0.12665625 -4.8760312500000005 0.01378125 -8.6836125 -3.77221875l-0.9915375 0.99721875c4.1550562499999995 4.13146875 8.109712499999999 4.3332187499999995 9.80565 4.17515625l-0.1305 -1.40015625Zm-8.6836125 -3.77221875c-3.6294187499999997 -3.6088125 -4.230628125 -6.644109374999999 -4.30546875 -7.960921875l-1.40398125 0.079790625c0.09418125 1.657340625 0.8386218750000001 5.0211 4.717912500000001 8.878350000000001l0.9915375 -0.99721875Zm1.2893625000000002 -5.794021875 0.268875 -0.267365625 -0.9915 -0.9971906249999999 -0.268884375 0.26735624999999996 0.9915093749999999 0.9972Zm0.48290625 -3.675375 -1.182140625 -1.579125 -1.125740625 0.84275625 1.1821312499999999 1.579134375 1.12575 -0.8427656250000001ZM5.374340625 1.915303125l-1.4715 1.4631468749999998 0.9915375 0.9972 1.4715 -1.4631468749999998 -0.9915375 -0.9972Zm4.179440625 5.09960625c-0.495759375 -0.4986 -0.49643437499999993 -0.497934375 -0.497109375 -0.49725937500000006 -0.000225 0.000225 -0.0009 0.000909375 -0.001359375 0.00136875 -0.00091875 0.000928125 -0.00185625 0.001865625 -0.002803125 0.00283125 -0.001903125 0.0019406249999999999 -0.003871875 0.00395625 -0.005896874999999999 0.00605625 -0.004059375 0.0042093750000000004 -0.008353125 0.008765625 -0.012871875 0.013678125000000001 -0.009046875000000001 0.009815625 -0.018975000000000002 0.021046875 -0.029606249999999997 0.03373125 -0.021253124999999998 0.025359375 -0.0453375 0.0565875 -0.07064999999999999 0.093946875 -0.050746875 0.074896875 -0.106040625 0.173925 -0.1529625 0.29846249999999996 -0.095746875 0.254109375 -0.14707499999999998 0.5890875 -0.08272499999999999 1.003884375 0.12585 0.8112 0.684515625 1.8827343749999998 2.115609375 3.3056718750000003l0.9915 -0.99721875c-1.3392187500000001 -1.331634375 -1.65825 -2.1420093749999998 -1.7175 -2.524040625 -0.028218749999999997 -0.181809375 0.00103125 -0.27129375 0.009093750000000001 -0.29248124999999997 0.004875 -0.01310625 0.00721875 -0.014446875 0.00121875 -0.0054937499999999995 -0.003 0.004378125 -0.00796875 0.01123125 -0.01575 0.020465624999999998 -0.0038437500000000004 0.004621875 -0.008437499999999999 0.009853125 -0.01378125 0.015684374999999997 -0.00271875 0.002915625 -0.00553125 0.0059812500000000005 -0.008718749999999999 0.009196875 -0.0015 0.0016125 -0.00309375 0.003253125 -0.004781250000000001 0.004940625000000001 -0.00084375 0.00084375 -0.0016875 0.001696875 -0.00253125 0.002559375 -0.000375 0.00043125 -0.00103125 0.0010875 -0.0013125 0.001303125 -0.00065625 0.00065625 -0.0013125 0.0013125 -0.4970625 -0.4972875Zm1.259625 4.2623718749999995c1.4315624999999998 1.42340625 2.50809375 1.9773749999999999 3.3206249999999997 2.1020625 0.41521875 0.06365625 0.75 0.012843750000000001 1.0039687499999999 -0.08175 0.1245 -0.04640625 0.2236875 -0.1010625 0.2986875 -0.1513125 0.0375 -0.025125 0.06881250000000001 -0.04903125 0.09421875 -0.070125 0.01275 -0.0105 0.024 -0.02034375 0.03384375 -0.029343750000000002 0.00496875 -0.0045 0.009562500000000002 -0.008718749999999999 0.01378125 -0.01275 0.00215625 -0.0020625 0.004125 -0.00403125 0.006093749999999999 -0.00590625l0.0028125 -0.0028125c0.00046875 -0.00046875 0.00121875 -0.001125 0.00140625 -0.0013125 0.00065625 -0.00065625 0.0013125 -0.0013125 -0.4944375 -0.49996875 -0.49575 -0.4985625 -0.49509375 -0.49921875 -0.4944375 -0.499875l0.0013125 -0.0013125 0.00253125 -0.00253125c0.00178125 -0.00159375 0.003375 -0.0031875 0.00496875 -0.004781250000000001 0.00328125 -0.00309375 0.006375 -0.00590625 0.009281250000000001 -0.008625 0.0058125 -0.00525 0.0110625 -0.00984375 0.01575 -0.01359375 0.0091875 -0.007687500000000001 0.01603125 -0.0125625 0.02025 -0.01546875 0.008718749999999999 -0.0058125 0.0069375 -0.0031875 -0.0069375 0.00196875 -0.02296875 0.00853125 -0.1149375 0.037875 -0.2998125 0.00946875 -0.38746875000000003 -0.059343749999999994 -1.2035625 -0.37809375 -2.54240625 -1.70925l-0.9915 0.99721875ZM9.350296875 2.2590093749999998C8.39469375 0.98251875 6.5155875 0.780534375 5.374340625 1.915303125l0.9915375 0.9972c0.49845000000000006 -0.495628125 1.3837125 -0.44518125000000003 1.858678125 0.1892625l1.125740625 -0.84275625ZM4.454700000000001 5.346609375c-0.018440625 -0.32447812499999995 0.130378125 -0.663421875 0.43967812500000003 -0.970959375L3.902840625 3.3784500000000004c-0.5037375000000001 0.5008781250000001 -0.89975625 1.209909375 -0.852121875 2.04795l1.40398125 -0.079790625ZM18.25528125 16.653375c-0.257625 0.25621875 -0.5338125 0.4005 -0.8115 0.426375l0.1305 1.40015625c0.6886875 -0.06421875 1.25296875 -0.41212499999999996 1.6725 -0.8293125l-0.9915 -0.99721875Zm-7.936875 -9.40723125c0.92296875 -0.9177375 0.99159375 -2.3693625 0.21403125 -3.408009375l-1.12575 0.8427656250000001c0.37828125 0.505284375 0.32203125000000005 1.16851875 -0.07978125 1.568053125l0.9915 0.9971906249999999Zm8.923875 6.147825c0.7666875 0.4168125 0.886125 1.396875 0.3448125 1.9351875l0.9915 0.99721875c1.25653125 -1.24940625 0.8690625000000001 -3.3341250000000002 -0.6646875 -4.16784375l-0.671625 1.2354375000000002Zm-3.22509375 -0.79584375c0.36 -0.35793749999999996 0.93946875 -0.446625 1.4340000000000002 -0.17784375l0.671625 -1.2354375000000002c-1.0158749999999999 -0.55228125 -2.276625 -0.39975 -3.09721875 0.4160625l0.99159375 0.99721875Z" fill="#000000" stroke-width="1.5"></path>
</svg>