<svg viewBox="0 0 24 24" fill="none" xmlns="http://www.w3.org/2000/svg" id="People-Nearby--Streamline-Solar-Ar" height="24" width="24">
  <desc>
    People Nearby Streamline Icon: https://streamlinehq.com
  </desc>
  <path d="M14 4c0 1.10457 -0.8954 2 -2 2s-2 -0.89543 -2 -2 0.8954 -2 2 -2 2 0.89543 2 2Z" stroke="#000000" stroke-width="1.5"></path>
  <path d="m6.04779 10.849 0.23718 -0.7115 -0.23718 0.7115Zm2.1753 0.7251 -0.23717 0.7115 0.23717 -0.7115Zm0.79373 1.6819 -0.70001 -0.2692 0.70001 0.2692Zm-1.24679 3.2417 0.70001 0.2692 -0.70001 -0.2692ZM17.9522 10.849l-0.2372 -0.7115 0.2372 0.7115Zm-2.1753 0.7251 0.2372 0.7115 -0.2372 -0.7115Zm-0.7937 1.6819 0.7 -0.2692 -0.7 0.2692Zm1.2468 3.2417 -0.7 0.2692 0.7 -0.2692Zm-5.8058 1.2597 0.6512 0.3721 -0.6512 -0.3721ZM12 14.9997l0.6512 -0.3721c-0.1335 -0.2336 -0.3821 -0.3779 -0.6512 -0.3779s-0.5177 0.1443 -0.6512 0.3779l0.6512 0.3721Zm5.1465 -7.1028 -0.1571 -0.73335 0.1571 0.73335Zm-1.8975 0.40663 0.1571 0.73335 -0.1571 -0.73335Zm-6.49798 0 0.15715 -0.73335 -0.15715 0.73335Zm-1.89757 -0.40662 -0.15714 0.73335 0.15714 -0.73335Zm6.72235 9.86049 -0.6512 0.3721 0.6512 -0.3721Zm1.4626 -9.40914 -0.1519 -0.73445 0.1519 0.73445Zm-6.07679 0 -0.15192 0.73446 0.15192 -0.73446Zm6.32209 3.41834 0.394 0.6382 -0.394 -0.6382Zm-0.4655 0.9864 0.7431 -0.1016 -0.7431 0.1016Zm-6.10195 -0.9864 -0.39395 0.6382 0.39395 -0.6382Zm0.46552 0.9864 0.74308 0.1016 -0.74308 -0.1016Zm-3.37115 -1.1925 2.1753 0.7251 0.47434 -1.423 -2.17529 -0.7251 -0.47435 1.423Zm2.50619 1.4263 -1.24679 3.2416 1.40002 0.5385 1.24679 -3.2417 -1.40002 -0.5384Zm9.39819 -2.8493 -2.1753 0.7251 0.4744 1.423 2.1753 -0.7251 -0.4744 -1.423Zm-3.4318 3.3877 1.2468 3.2417 1.4 -0.5385 -1.2468 -3.2416 -1.4 0.5384Zm-3.2078 4.6043 1.5758 -2.7577 -1.3024 -0.7442 -1.57581 2.7577 1.30241 0.7442Zm5.914 -10.96595 -1.8976 0.40662 0.3143 1.46671 1.8976 -0.40662 -0.3143 -1.46671Zm-8.08123 0.40663L7.0106 7.16355l-0.31429 1.46671 1.89756 0.40662 0.3143 -1.4667Zm2.44063 7.80162 1.5758 2.7577 1.3024 -0.7442 -1.5758 -2.7577 -1.3024 0.7442Zm3.743 -7.80163c-0.1065 0.02283 -0.1562 0.03349 -0.2053 0.04364l0.3038 1.46891c0.0555 -0.01149 0.1113 -0.02344 0.2158 -0.04584l-0.3143 -1.46671ZM8.59387 9.03688c0.10453 0.0224 0.16029 0.03435 0.21582 0.04584l0.30384 -1.46891c-0.0491 -0.01015 -0.09885 -0.02081 -0.20536 -0.04363l-0.3143 1.4667Zm6.29263 -1.42307c-1.9042 0.39387 -3.8688 0.39387 -5.77297 0l-0.30384 1.46891c2.10461 0.43533 4.27601 0.43533 6.38061 0l-0.3038 -1.46891ZM9.14506 19.2497c0.79781 0 1.53444 -0.4275 1.93034 -1.1202l-1.30241 -0.7442c-0.12877 0.2254 -0.3684 0.3644 -0.62793 0.3644v1.5ZM15.53 16.7669c0.1822 0.4737 -0.1675 0.9828 -0.6751 0.9828v1.5c1.5603 0 2.6352 -1.5651 2.0751 -3.0213l-1.4 0.5385Zm0.0097 -5.9043c-0.2219 0.074 -0.4581 0.1474 -0.6499 0.2657l0.7879 1.2765c-0.0089 0.0054 -0.0014 -0.0011 0.0565 -0.023 0.0608 -0.023 0.1428 -0.0505 0.2799 -0.0962l-0.4744 -1.423Zm0.1435 2.1242c-0.0519 -0.1349 -0.0828 -0.2157 -0.1037 -0.2773 -0.0199 -0.0585 -0.0196 -0.0684 -0.0182 -0.0581l-1.4862 0.2032c0.0306 0.2233 0.1241 0.4523 0.2081 0.6706l1.4 -0.5384Zm-0.7934 -1.8585c-0.5891 0.3637 -0.9084 1.0404 -0.8147 1.7263l1.4862 -0.2032c-0.0134 -0.098 0.0322 -0.1947 0.1164 -0.2466l-0.7879 -1.2765ZM18.25 9.39526c0 0.33676 -0.2155 0.63574 -0.535 0.74224l0.4744 1.423c0.932 -0.3106 1.5606 -1.1828 1.5606 -2.16524h-1.5ZM7.07002 16.2284c-0.56008 1.4562 0.51482 3.0213 2.07504 3.0213v-1.5c-0.50755 0 -0.85722 -0.5091 -0.67502 -0.9828l-1.40002 -0.5385Zm0.9159 -3.9428c0.13709 0.0457 0.21909 0.0732 0.27991 0.0962 0.05788 0.0219 0.06532 0.0284 0.05647 0.023l0.7879 -1.2765c-0.19178 -0.1183 -0.42801 -0.1917 -0.64994 -0.2657l-0.47434 1.423Zm1.73091 1.2396c0.08398 -0.2183 0.17749 -0.4473 0.20802 -0.6706l-1.48617 -0.2032c0.00141 -0.0103 0.00172 -0.0005 -0.01817 0.0581 -0.02091 0.0616 -0.05182 0.1424 -0.1037 0.2773l1.40002 0.5384ZM8.3223 12.4048c0.08416 0.0519 0.12978 0.1486 0.11638 0.2466l1.48617 0.2032c0.09375 -0.6859 -0.22557 -1.3626 -0.81465 -1.7263l-0.7879 1.2765ZM4.25 9.39526c0 0.98244 0.62863 1.85464 1.56062 2.16524l0.47435 -1.423C5.96549 10.031 5.75 9.73202 5.75 9.39526h-1.5Zm1.5 0c0 -0.49809 0.45927 -0.86937 0.94631 -0.765l0.31429 -1.46671C5.58979 6.8591 4.25 7.9422 4.25 9.39526h1.5Zm7.1746 8.73424c0.3959 0.6927 1.1325 1.1202 1.9303 1.1202v-1.5c-0.2595 0 -0.4991 -0.139 -0.6279 -0.3644l-1.3024 0.7442ZM19.75 9.39526c0 -1.45306 -1.3398 -2.53617 -2.7606 -2.23171l0.3143 1.46671c0.487 -0.10437 0.9463 0.26691 0.9463 0.765h1.5Z" fill="#000000" stroke-width="1.5"></path>
  <path d="M19.4537 14.5c1.5835 0.7961 2.5463 1.8475 2.5463 3 0 2.4853 -4.4772 4.5 -10 4.5 -5.52285 0 -10 -2.0147 -10 -4.5 0 -1.1525 0.96285 -2.2039 2.54631 -3" stroke="#000000" stroke-linecap="round" stroke-width="1.5"></path>
</svg>