<svg viewBox="0 0 24 24" fill="none" xmlns="http://www.w3.org/2000/svg" id="User-Id--Streamline-Solar-Ar" height="24" width="24">
  <desc>
    User Id Streamline Icon: https://streamlinehq.com
  </desc>
  <path stroke="#000000" d="M7 9a2 2 0 1 0 4 0 2 2 0 1 0 -4 0" stroke-width="1.5"></path>
  <path d="M13 15c0 1.1046 0 2 -4 2s-4 -0.8954 -4 -2 1.79086 -2 4 -2c2.2091 0 4 0.8954 4 2Z" stroke="#000000" stroke-width="1.5"></path>
  <path d="M2 12c0 -3.77124 0 -5.65685 1.17157 -6.82843C4.34315 4 6.22876 4 10 4h4c3.7712 0 5.6569 0 6.8284 1.17157C22 6.34315 22 8.22876 22 12c0 3.7712 0 5.6569 -1.1716 6.8284C19.6569 20 17.7712 20 14 20h-4c-3.77124 0 -5.65685 0 -6.82843 -1.1716C2 17.6569 2 15.7712 2 12Z" stroke="#000000" stroke-width="1.5"></path>
  <path d="M19 12h-4" stroke="#000000" stroke-linecap="round" stroke-width="1.5"></path>
  <path d="M19 9h-5" stroke="#000000" stroke-linecap="round" stroke-width="1.5"></path>
  <path d="M19 15h-3" stroke="#000000" stroke-linecap="round" stroke-width="1.5"></path>
</svg>