<svg viewBox="0 0 24 24" fill="none" xmlns="http://www.w3.org/2000/svg" id="Star-Shine--Streamline-Solar-Ar" height="24" width="24">
  <desc>
    Star Shine Streamline Icon: https://streamlinehq.com
  </desc>
  <path d="M10.5766 8.70419C11.2099 7.56806 11.5266 7 12 7c0.4734 0 0.7901 0.56806 1.4234 1.70419l0.1639 0.29393c0.1799 0.32285 0.2699 0.48427 0.4102 0.59078 0.1403 0.10651 0.3151 0.14605 0.6646 0.22512l0.3181 0.07199c1.2299 0.27829 1.8448 0.41739 1.9911 0.88789 0.1463 0.4704 -0.2729 0.9606 -1.1113 1.9411l-0.217 0.2536c-0.2382 0.2786 -0.3573 0.4179 -0.4109 0.5903 -0.0536 0.1723 -0.0356 0.3582 0.0004 0.7299l0.0328 0.3384c0.1268 1.3081 0.1901 1.9622 -0.1929 2.2529 -0.383 0.2908 -0.9587 0.0257 -2.1102 -0.5045l-0.2979 -0.1372c-0.3273 -0.1506 -0.4909 -0.226 -0.6643 -0.226s-0.337 0.0754 -0.6643 0.226l-0.2979 0.1372c-1.15146 0.5302 -1.72721 0.7953 -2.11023 0.5045 -0.38301 -0.2907 -0.31963 -0.9448 -0.19287 -2.2529l0.03279 -0.3384c0.03602 -0.3717 0.05403 -0.5576 0.00044 -0.7299 -0.05359 -0.1724 -0.17272 -0.3117 -0.41097 -0.5903l-0.21691 -0.2536c-0.83843 -0.9805 -1.25764 -1.4707 -1.11134 -1.9411 0.1463 -0.4705 0.76122 -0.6096 1.99106 -0.88789l0.31817 -0.07199c0.34949 -0.07907 0.52423 -0.11861 0.66456 -0.22512 0.1403 -0.10651 0.2303 -0.26793 0.4102 -0.59078l0.1639 -0.29393Z" stroke="#000000" stroke-width="1.5"></path>
  <path d="M12 2v2" stroke="#000000" stroke-linecap="round" stroke-width="1.5"></path>
  <path d="M12 20v2" stroke="#000000" stroke-linecap="round" stroke-width="1.5"></path>
  <path d="m2 12 2 0" stroke="#000000" stroke-linecap="round" stroke-width="1.5"></path>
  <path d="m20 12 2 0" stroke="#000000" stroke-linecap="round" stroke-width="1.5"></path>
  <path d="m6.00012 18 0.34305 -0.343" stroke="#000000" stroke-linecap="round" stroke-width="1.5"></path>
  <path d="m17.6569 6.34277 0.3432 -0.34326" stroke="#000000" stroke-linecap="round" stroke-width="1.5"></path>
  <path d="m17.9999 18 -0.3431 -0.343" stroke="#000000" stroke-linecap="round" stroke-width="1.5"></path>
  <path d="M6.34326 6.34375 6 6.00049" stroke="#000000" stroke-linecap="round" stroke-width="1.5"></path>
</svg>