<svg viewBox="0 0 24 24" fill="none" xmlns="http://www.w3.org/2000/svg" id="Bookmark--Streamline-Solar-Ar" height="24" width="24">
  <desc>
    Bookmark Streamline Icon: https://streamlinehq.com
  </desc>
  <path d="M21 16.0909v-4.9934c0 -4.28859 0 -6.4329 -1.318 -7.7652S16.2426 2 12 2C7.75736 2 5.63604 2 4.31802 3.3323 3 4.6646 3 6.80891 3 11.0975v4.9934c0 3.0966 0 4.6449 0.73411 5.3214 0.3501 0.3227 0.79204 0.5254 1.26281 0.5792 0.9871 0.113 2.13981 -0.9066 4.44524 -2.9457 1.01904 -0.9013 1.52864 -1.352 2.11814 -1.4707 0.2903 -0.0585 0.5891 -0.0585 0.8794 0 0.5895 0.1187 1.0991 0.5694 2.1181 1.4707 2.3055 2.0391 3.4582 3.0587 4.4453 2.9457 0.4708 -0.0538 0.9127 -0.2565 1.2628 -0.5792C21 20.7358 21 19.1875 21 16.0909Z" stroke="#000000" stroke-width="1.5"></path>
  <path d="M15 6H9" stroke="#000000" stroke-linecap="round" stroke-width="1.5"></path>
</svg>