<svg viewBox="0 0 24 24" fill="none" xmlns="http://www.w3.org/2000/svg" id="Tuning-2--Streamline-Solar-Ar" height="24" width="24">
  <desc>
    Tuning 2 Streamline Icon: https://streamlinehq.com
  </desc>
  <path d="M9.5 14c1.6569 0 3 1.3431 3 3 0 1.6568 -1.3431 3 -3 3 -1.65685 0 -3 -1.3432 -3 -3 0 -1.6569 1.34315 -3 3 -3Z" stroke="#000000" stroke-width="1.5"></path>
  <path d="M14.5 3.99998c-1.6569 0 -3 1.34314 -3 3 0 1.65685 1.3431 3 3 3s3 -1.34315 3 -3c0 -1.65686 -1.3431 -3 -3 -3Z" stroke="#000000" stroke-width="1.5"></path>
  <path d="m15 16.9585 7 0" stroke="#000000" stroke-linecap="round" stroke-width="1.5"></path>
  <path d="m9 6.9585 -7 0" stroke="#000000" stroke-linecap="round" stroke-width="1.5"></path>
  <path d="m2 16.9585 2 0" stroke="#000000" stroke-linecap="round" stroke-width="1.5"></path>
  <path d="m22 6.9585 -2 0" stroke="#000000" stroke-linecap="round" stroke-width="1.5"></path>
</svg>