<svg viewBox="0 0 24 24" fill="none" xmlns="http://www.w3.org/2000/svg" id="Lightbulb-Bolt--Streamline-Solar-Ar" height="24" width="24">
  <desc>
    Lightbulb Bolt Streamline Icon: https://streamlinehq.com
  </desc>
  <path d="M14.5 19.5h-5m5 0c0 -0.7135 0 -1.0703 0.0381 -1.307 0.1228 -0.7634 0.1443 -0.8115 0.6311 -1.4123 0.1509 -0.1862 0.7113 -0.688 1.832 -1.6915C18.5349 13.7159 19.5 11.7206 19.5 9.5 19.5 5.35786 16.1421 2 12 2 7.85786 2 4.5 5.35786 4.5 9.5c0 2.2206 0.9651 4.2159 2.49876 5.5892 1.12069 1.0035 1.68111 1.5053 1.83206 1.6915 0.4868 0.6008 0.50828 0.6489 0.6311 1.4123C9.5 18.4297 9.5 18.7865 9.5 19.5m5 0c0 0.9346 0 1.4019 -0.201 1.75 -0.1316 0.228 -0.321 0.4174 -0.549 0.549C13.4019 22 12.9346 22 12 22s-1.4019 0 -1.75 -0.201c-0.228 -0.1316 -0.41739 -0.321 -0.54904 -0.549C9.5 20.9019 9.5 20.4346 9.5 19.5" stroke="#000000" stroke-width="1.5"></path>
  <path d="m12.7856 8.5 -2.1429 3h3l-2.1428 3" stroke="#000000" stroke-linecap="round" stroke-linejoin="round" stroke-width="1.5"></path>
</svg>