<svg viewBox="0 0 24 24" fill="none" xmlns="http://www.w3.org/2000/svg" id="Filter--Streamline-Solar-Ar" height="24" width="24">
  <desc>
    Filter Streamline Icon: https://streamlinehq.com
  </desc>
  <path d="M19 3H5c-1.41421 0 -2.12132 0 -2.56066 0.4122C2 3.8244 2 4.48782 2 5.81466v0.68982c0 1.03784 0 1.55676 0.2596 1.98694s0.73387 0.69716 1.68242 1.23113l2.91302 1.63985c0.63642 0.3582 0.95463 0.5374 1.18247 0.7352 0.47448 0.4119 0.76657 0.8959 0.89893 1.4896C9 13.8722 9 14.2058 9 14.8729l0 2.6695c0 0.9096 0 1.3643 0.25192 1.7189 0.25193 0.3545 0.69936 0.5294 1.59428 0.8793 1.8786 0.7344 2.8179 1.1016 3.4859 0.6838C15 20.4066 15 19.4519 15 17.5424v-2.6695c0 -0.6671 0 -1.0007 0.0636 -1.2857 0.1323 -0.5937 0.4244 -1.0777 0.8989 -1.4896 0.2278 -0.1978 0.546 -0.377 1.1825 -0.7352l2.913 -1.63985c0.9485 -0.53397 1.4228 -0.80095 1.6824 -1.23113C22 8.06124 22 7.54232 22 6.50448v-0.68982c0 -1.32684 0 -1.99026 -0.4393 -2.40246C21.1213 3 20.4142 3 19 3Z" stroke="#000000" stroke-width="1.5"></path>
</svg>