<svg viewBox="0 0 24 24" fill="none" xmlns="http://www.w3.org/2000/svg" id="Tuning-3--Streamline-Solar-Ar" height="24" width="24">
  <desc>
    Tuning 3 Streamline Icon: https://streamlinehq.com
  </desc>
  <path stroke="#000000" d="M14 12a2 2 0 1 0 -4 0 2 2 0 1 0 4 0" stroke-width="1.5"></path>
  <path stroke="#000000" d="M22 14a2 2 0 1 0 -4 0 2 2 0 1 0 4 0" stroke-width="1.5"></path>
  <path stroke="#000000" d="M6 9.9999998252a2 2 0 1 1 -4 3.496e-7 2 2 0 1 1 4 -3.496e-7" stroke-width="1.5"></path>
  <path d="m12 8 0 -3" stroke="#000000" stroke-linecap="round" stroke-width="1.5"></path>
  <path d="m20 10 0 -5" stroke="#000000" stroke-linecap="round" stroke-width="1.5"></path>
  <path d="m4 14 0 5" stroke="#000000" stroke-linecap="round" stroke-width="1.5"></path>
  <path d="m12 19 0 -3" stroke="#000000" stroke-linecap="round" stroke-width="1.5"></path>
  <path d="m20 19 0 -1" stroke="#000000" stroke-linecap="round" stroke-width="1.5"></path>
  <path d="m4 5 0 1" stroke="#000000" stroke-linecap="round" stroke-width="1.5"></path>
</svg>