<svg viewBox="0 0 24 24" fill="none" xmlns="http://www.w3.org/2000/svg" id="Question-Square--Streamline-Solar-Ar" height="24" width="24">
  <desc>
    Question Square Streamline Icon: https://streamlinehq.com
  </desc>
  <path d="M2 12c0 -4.71405 0 -7.07107 1.46447 -8.53553C4.92893 2 7.28595 2 12 2c4.714 0 7.0711 0 8.5355 1.46447C22 4.92893 22 7.28595 22 12c0 4.714 0 7.0711 -1.4645 8.5355C19.0711 22 16.714 22 12 22c-4.71405 0 -7.07107 0 -8.53553 -1.4645C2 19.0711 2 16.714 2 12Z" stroke="#000000" stroke-width="1.5"></path>
  <path d="M10.125 8.875C10.125 7.83947 10.9645 7 12 7c1.0355 0 1.875 0.83947 1.875 1.875 0 0.68745 -0.37 1.2885 -0.9216 1.6149 -0.4754 0.2812 -0.9534 0.7078 -0.9534 1.2601V13" stroke="#000000" stroke-linecap="round" stroke-width="1.5"></path>
  <path fill="#000000" d="M11 16a1 1 0 1 0 2 0 1 1 0 1 0 -2 0" stroke-width="1.5"></path>
</svg>