<svg viewBox="0 0 24 24" fill="none" xmlns="http://www.w3.org/2000/svg" id="Buildings--Streamline-Solar-Ar" height="24" width="24">
  <desc>
    Buildings Streamline Icon: https://streamlinehq.com
  </desc>
  <path d="M22 22 2 22" stroke="#000000" stroke-linecap="round" stroke-width="1.5"></path>
  <path d="M21 22V6c0 -1.88562 0 -2.82843 -0.5857 -3.41421C19.8285 2 18.8857 2 17 2h-2c-1.8856 0 -2.8284 0 -3.4142 0.58579 -0.4715 0.47154 -0.5635 1.17443 -0.5814 2.41421" stroke="#000000" stroke-width="1.5"></path>
  <path d="M15 22V9c0 -1.88562 0 -2.82843 -0.5858 -3.41421C13.8284 5 12.8856 5 11 5H7c-1.88562 0 -2.82843 0 -3.41421 0.58579C3 6.17157 3 7.11438 3 9v13" stroke="#000000" stroke-width="1.5"></path>
  <path d="M9 22v-3" stroke="#000000" stroke-linecap="round" stroke-width="1.5"></path>
  <path d="M6 8h6" stroke="#000000" stroke-linecap="round" stroke-width="1.5"></path>
  <path d="M6 11h6" stroke="#000000" stroke-linecap="round" stroke-width="1.5"></path>
  <path d="M6 14h6" stroke="#000000" stroke-linecap="round" stroke-width="1.5"></path>
</svg>