<svg viewBox="-0.75 -0.75 24 24" fill="none" xmlns="http://www.w3.org/2000/svg" id="Dialog-2--Streamline-Solar-Ar" height="24" width="24">
  <desc>
    Dialog 2 Streamline Icon: https://streamlinehq.com
  </desc>
  <path d="m10.18996875 20.1658125 0.6050625 0.358125 -0.6050625 -0.358125Zm0.24328125 -0.41090625000000003 -0.60515625 -0.358125 0.60515625 0.358125Zm-2.116490625 0 0.60508125 -0.358125 -0.000009375 0 -0.605071875 0.358125Zm0.243215625 0.41090625000000003 -0.605071875 0.358125 0.605071875 -0.358125Zm-6.399525 -4.1056875 0.6496031250000001 -0.2690625 -0.6496031250000001 0.2690625Zm3.735778125 2.3008125 0.022471875000000002 -0.70275 -0.022471875000000002 0.70275Zm-1.7062875000000002 -0.2713125 -0.26908125 0.64959375 0.26908125 -0.64959375Zm12.399590625 -2.0295 0.64959375 0.2690625 -0.64959375 -0.2690625Zm-3.73575 2.3008125 -0.0225 -0.70275 0.0225 0.70275Zm1.70625 -0.2713125 0.2690625 0.64959375 -0.2690625 -0.64959375ZM15.084375 6.1776l0.36740625000000005 -0.5995125 -0.36740625000000005 0.5995125Zm1.2380625 1.238034375 0.5994375 -0.367378125 -0.5994375 0.367378125ZM3.6656343750000002 6.1776l-0.3673875 -0.5995125 0.3673875 0.5995125ZM2.4276 7.415634375l-0.5995125 -0.367378125 0.5995125 0.367378125ZM7.421596875 18.58340625l-0.357975 0.60525 0.357975 -0.60525Zm3.373434375 1.94053125 0.24328125 -0.41090625000000003 -1.21021875 -0.71625 -0.24318750000000003 0.41090625000000003 1.210125 0.71625Zm-3.083353125 -0.41090625000000003 0.243225 0.41090625000000003 1.210153125 -0.71625 -0.243215625 -0.41090625000000003 -1.2101625 0.71625Zm1.873228125 -0.30534374999999997c-0.0425625 0.07190625 -0.11690625 0.11418750000000001 -0.209925 0.11418750000000001 -0.0930375 0 -0.167353125 -0.04228125 -0.209925 -0.11418750000000001l-1.210153125 0.71625c0.63463125 1.07221875 2.205534375 1.07221875 2.8401281249999997 0l-1.210125 -0.71625ZM8.25 6.328125h2.25v-1.40625H8.25v1.40625Zm7.921874999999999 5.671875v0.75h1.40625v-0.75h-1.40625Zm-13.59375 0.75v-0.75h-1.40625v0.75h1.40625Zm-1.40625 0c0 0.86409375 -0.000384375 1.54725 0.0373125 2.09971875 0.038128125 0.55875 0.11753437500000001 1.0349062500000001 0.301659375 1.47946875l1.2992062500000001 -0.538125c-0.101325 -0.2446875 -0.164634375 -0.54984375 -0.19787812500000002 -1.0370625C2.578509375 14.2605 2.578125 13.633312499999999 2.578125 12.75h-1.40625Zm4.746824999999999 4.9081875c-0.7427437499999999 -0.0238125 -1.14639375 -0.08840624999999999 -1.4596875 -0.21815625l-0.538153125 1.2991875c0.5595656250000001 0.23175 1.176740625 0.299625 1.9528874999999999 0.32446875000000003l0.044953125 -1.4055Zm-4.407853125 -1.329c0.45196875 1.09115625 1.318875 1.9580625 2.4100124999999997 2.41003125l0.538153125 -1.2991875c-0.74656875 -0.30928125 -1.339715625 -0.9024375 -1.648959375 -1.6489687499999999l-1.2992062500000001 0.538125ZM16.171875 12.75c0 0.8833125000000001 -0.000375 1.5105 -0.03403125 2.004 -0.03328125 0.48721875000000003 -0.0965625 0.7923749999999999 -0.19790625 1.0370625l1.2991875 0.538125c0.18412499999999998 -0.4445625 0.26353125 -0.92071875 0.3016875 -1.47946875 0.0376875 -0.5524687500000001 0.0373125 -1.235625 0.0373125 -2.09971875h-1.40625Zm-3.2956875 6.3136875c0.77615625 -0.024843749999999998 1.39340625 -0.09271875 1.9529062499999998 -0.32446875000000003l-0.538125 -1.2991875c-0.3133125 0.12975 -0.7169062500000001 0.19434375 -1.4596875 0.21815625l0.044906249999999995 1.4055Zm3.0637499999999998 -3.272625c-0.3091875 0.74653125 -0.90234375 1.3396875000000001 -1.6489687499999999 1.6489687499999999l0.538125 1.2991875c1.09115625 -0.45196875 1.9580625 -1.318875 2.41003125 -2.41003125l-1.2991875 -0.538125ZM10.5 6.328125c1.24115625 0 2.12259375 0.000740625 2.80809375 0.06591562499999999 0.6750937499999999 0.06418125 1.08703125 0.18585 1.4088749999999999 0.38307187499999995l0.7348125000000001 -1.199025c-0.5799375 -0.355378125 -1.232625 -0.510009375 -2.0105625000000003 -0.583978125C12.673781250000001 4.921134374999999 11.713875 4.921875 10.5 4.921875v1.40625Zm7.078125 5.671875c0 -1.213875 0.00075 -2.1736874999999998 -0.0721875 -2.94121875 -0.07396875 -0.77795625 -0.22865625 -1.430596875 -0.5840625 -2.010525l-1.19896875 0.734765625c0.19715624999999998 0.321834375 0.31884375000000004 0.733846875 0.38306250000000003 1.408865625 0.06515625 0.68551875 0.06590625 1.5669562499999998 0.06590625 2.8081125h1.40625Zm-2.8611562499999996 -5.222887500000001c0.40996875 0.25123125 0.7546875000000001 0.59593125 1.0059375 1.0059093749999999l1.19896875 -0.734765625c-0.367125 -0.5991937500000001 -0.8709375 -1.102978125 -1.47009375 -1.47016875l-0.7348125000000001 1.199025ZM8.25 4.921875c-1.213921875 0 -2.173734375 -0.000740625 -2.941228125 0.07223437499999999 -0.77795625 0.07396875 -1.430596875 0.2286 -2.010525 0.583978125l0.734765625 1.199025c0.321834375 -0.197221875 0.733846875 -0.318890625 1.408865625 -0.38307187499999995C6.127359375 6.328865625000001 7.008853125 6.328125 8.25 6.328125v-1.40625ZM2.578125 12c0 -1.24115625 0.000740625 -2.12259375 0.06591562499999999 -2.8081125 0.06418125 -0.67501875 0.18585 -1.08703125 0.38307187499999995 -1.408865625l-1.199025 -0.734765625c-0.355378125 0.579928125 -0.510009375 1.23256875 -0.583978125 2.010525C1.1711343749999998 9.8263125 1.171875 10.786125 1.171875 12h1.40625Zm0.720121875 -6.4219124999999995c-0.5991937500000001 0.367190625 -1.102978125 0.8709749999999999 -1.4701593750000002 1.47016875l1.199025 0.734765625c0.25123125 -0.40997812499999997 0.59593125 -0.754678125 1.0059 -1.0059093749999999l-0.734765625 -1.199025ZM8.92183125 19.39678125c-0.18825 -0.31809375 -0.353371875 -0.59840625 -0.51350625 -0.8189062500000001 -0.168478125 -0.23193750000000002 -0.361509375 -0.44156249999999997 -0.62874375 -0.599625l-0.715959375 1.21040625c0.043228125 0.0255 0.10288125000000001 0.07237500000000001 0.206915625 0.215625 0.11237812500000001 0.15478125 0.23960624999999997 0.36824999999999997 0.44115 0.70875l1.21014375 -0.71625Zm-3.048084375 -0.33309375c0.417609375 0.01340625 0.684553125 0.02259375 0.887334375 0.047343750000000004 0.19170937500000002 0.02334375 0.263653125 0.0545625 0.302540625 0.077625l0.715959375 -1.21040625c-0.271584375 -0.16059375 -0.557353125 -0.22771875 -0.84823125 -0.26315625 -0.27980625 -0.034125 -0.6203156249999999 -0.04434375 -1.01265 -0.05690625l-0.044953125 1.4055Zm5.164565625 1.04934375c0.20146875 -0.3405 0.32878125 -0.55396875 0.44109374999999995 -0.70875 0.1040625 -0.14325 0.1636875 -0.19012500000000002 0.20690625 -0.215625l-0.7158749999999999 -1.21040625c-0.26728125 0.1580625 -0.4603125 0.3676875 -0.62878125 0.599625 -0.16012500000000002 0.2205 -0.3253125 0.5008125 -0.5135624999999999 0.8189062500000001l1.21021875 0.71625Zm1.79296875 -2.45484375c-0.39234375 0.0125625 -0.7328437499999999 0.02278125 -1.0126875 0.05690625 -0.2908125 0.0354375 -0.57665625 0.1025625 -0.84815625 0.26315625l0.7158749999999999 1.21040625c0.03890625 -0.0230625 0.11090625 -0.05428125 0.30253125 -0.077625 0.20278125 -0.02475 0.46978125 -0.0339375 0.88734375 -0.047343750000000004l-0.044906249999999995 -1.4055Z" fill="#000000" stroke-width="1.5"></path>
  <path d="m20.357343750000002 11.65790625 0.64959375 0.2690625 -0.64959375 -0.2690625Zm-1.9026562500000002 1.9026562500000002 0.2690625 0.64959375 -0.2690625 -0.64959375Zm0.49153125 -11.1675 -0.36740625000000005 0.5995125 0.36740625000000005 -0.5995125Zm1.160625 1.1606625 0.59953125 -0.367378125 0 -0.000009375 -0.59953125 0.3673875ZM8.24116875 2.3930625l-0.3673875 -0.5995125 0.3673875 0.5995125ZM7.080515625 3.553725l-0.5995125 -0.3673875 0.5995125 0.3673875ZM12.53896875 2.578125h2.109375v-1.40625h-2.109375v1.40625Zm7.3828125 5.273465625v0.703125h1.40625v-0.703125h-1.40625Zm0 0.703125c0 0.828628125 -0.000375 1.4149406249999998 -0.03178125 1.8757218750000002 -0.031031249999999996 0.4545 -0.08990625 0.73528125 -0.18225 0.95840625l1.2991875 0.538125c0.17521875 -0.423 0.250125 -0.8746875000000001 0.28603124999999996 -1.4008125 0.03553125 -0.51975 0.0350625 -1.162021875 0.0350625 -1.9714406249999998h-1.40625Zm-0.21403125 2.8341281250000003c-0.28546875 0.68915625 -0.8329687499999999 1.23665625 -1.522125 1.522125l0.538125 1.2991875c1.03378125 -0.42815625 1.85503125 -1.2495 2.2831875 -2.2831875l-1.2991875 -0.538125ZM14.64834375 2.578125c1.16446875 0 1.9884375 0.000740625 2.62846875 0.061603125 0.629625 0.059859375000000006 1.0083749999999998 0.17289375 1.302 0.352846875l0.7348125000000001 -1.199025c-0.55171875 -0.33810937500000005 -1.171125 -0.48410624999999996 -1.9036875000000002 -0.5537624999999999 -0.7220625 -0.06865312500000001 -1.6243124999999998 -0.0679125 -2.76159375 -0.0679125v1.40625Zm6.6796875 5.273465625c0 -1.13720625 0.00075 -2.0394843750000002 -0.067875 -2.7615749999999997 -0.06965625 -0.732553125 -0.215625 -1.3519312499999998 -0.55378125 -1.90366875l-1.19896875 0.73475625c0.17990625 0.293653125 0.29296875 0.67239375 0.35278125000000005 1.30201875 0.060937500000000006 0.6400781249999999 0.061593749999999996 1.464028125 0.061593749999999996 2.62846875h1.40625Zm-2.7492187500000003 -4.859015625c0.37846875 0.231909375 0.69665625 0.5500875 0.92859375 0.928528125l1.19896875 -0.734765625c-0.34781249999999997 -0.5676562500000001 -0.82509375 -1.044928125 -1.39275 -1.3927875l-0.7348125000000001 1.199025ZM12.53896875 1.171875c-1.1371875 0 -2.0394375 -0.000740625 -2.7615000000000003 0.0679125 -0.7325718750000001 0.06965625 -1.351940625 0.215653125 -1.9036875000000002 0.5537624999999999l0.734765625 1.199025c0.293653125 -0.17995312500000002 0.67239375 -0.2929875 1.3020468749999998 -0.352846875 0.6400312499999999 -0.06086250000000001 1.4640000000000002 -0.061603125 2.6283749999999997 -0.061603125v-1.40625Zm-4.6651875 0.6216750000000001c-0.5676562500000001 0.34785937499999997 -1.04491875 0.82513125 -1.392778125 1.3927875l1.199025 0.734765625c0.2319 -0.378440625 0.5500875 -0.6966187500000001 0.92851875 -0.928528125L7.8737812499999995 1.79355Zm-0.577978125 3.8679750000000004c0.0468375 -0.90035625 0.163940625 -1.38095625 0.384225 -1.740421875l-1.199025 -0.734765625c-0.40980937500000003 0.6687468750000001 -0.539625 1.4422593750000001 -0.589546875 2.4021375l1.404346875 0.07305ZM16.89834375 14.517c0.71878125 -0.023906249999999997 1.2979687500000001 -0.0883125 1.8254062500000001 -0.30684374999999997l-0.538125 -1.2991875c-0.283125 0.11728124999999999 -0.65071875 0.17784375 -1.3339687500000001 0.200625l0.0466875 1.4054062500000002Z" fill="#000000" stroke-width="1.5"></path>
  <path d="M6.1022437499999995 12.1875h0.008437499999999999m3.2641218750000003 0h0.008446875000000001m3.2643750000000002 0h0.008437499999999999" stroke="#000000" stroke-linecap="round" stroke-linejoin="round" stroke-width="1.5"></path>
</svg>